<?xml version="1.0" encoding="utf-8"?>
<!-- Generator: Adobe Illustrator 26.5.0, SVG Export Plug-In . SVG Version: 6.00 Build 0)  -->
<svg version="1.1" id="Calque_1" xmlns="http://www.w3.org/2000/svg" xmlns:xlink="http://www.w3.org/1999/xlink" x="0px" y="0px"
	 viewBox="0 0 1366 768" style="enable-background:new 0 0 1366 768;" xml:space="preserve">
<style type="text/css">
	.st0{fill:#EEBBC3;}
	.st1{fill:#B8C1EC;}
</style>
<g>
	<path class="st0" d="M348.2,367.4c4.8-6.5,1.7-15-2.3-21.1c-3.9-5.9-10.1-10.6-17.4-10.7c-10.2,0-19.3,6.3-27.4,12.5
		s-16.7,12.9-26.9,13.9c-9.8,0.9-19.1-3.6-28.5-6.2s-21.1-2.7-27.4,4.8c-5.8,6.9-4.5,17.4-0.5,25.5c6.9,14.4,21.2,25.1,37,27.7
		c15.8,2.5,32.7-3.2,43.8-14.7c5.8-6,10.2-13.6,17.4-17.8c5.1-3,11.2-3.9,16.9-5.3C338.7,374.5,344.7,372.2,348.2,367.4z"/>
</g>
<g>
	<path class="st0" d="M96,540.6c0.2-9.3-8.3-15.3-16.1-18.3c-7.6-3-16.6-3.3-23.5,1.5c-9.6,6.8-14,18.7-17.4,30
		c-3.5,11.2-7.1,23.2-16,30.9c-8.6,7.4-20.4,9.3-31,13.1c-10.6,3.8-21.7,11.4-22.6,22.7c-0.9,10.3,7.4,19.3,16.4,24.4
		c16.1,9,36.6,9.5,53.2,1.4s28.7-24.7,31.5-42.9c1.4-9.5,0.5-19.6,4.6-28.3c2.9-6.2,7.9-11.1,12.4-16.2
		C91.8,553.5,95.9,547.4,96,540.6z"/>
</g>
<g>
	<path class="st1" d="M1431.2,754.4c7.8-8.7,4.6-21.8-0.3-31.5c-4.8-9.4-13-17.6-23.4-18.8c-14.7-1.8-28.5,5.9-41.1,13.7
		c-12.6,7.8-25.8,16.1-40.5,15.8c-14.1-0.3-26.9-8.7-40.1-14.1c-13.2-5.6-29.9-7.7-40,2.3c-9.3,9.2-8.8,24.9-4.4,37.6
		c7.9,22.6,26.9,40.8,49.3,47.4c22.3,6.5,47.4,1.1,65-14.1c9.1-7.9,16.5-18.4,27.5-23.3c7.8-3.5,16.5-3.8,25-4.9
		C1416.6,763.2,1425.4,760.9,1431.2,754.4z"/>
</g>
<g>
	<path class="st1" d="M205.6,271.8c-4.4,3.6-3.5,9.4-1.5,13.7c1.9,4.2,5.6,7.8,10.8,8.6c7.2,1,14.6-2.1,21.3-5.3
		c6.7-3.2,13.8-6.6,21.2-6.2c7.1,0.4,13,4.2,19.3,6.8c6.3,2.6,14.5,3.9,20.1-0.3c5.1-3.9,5.8-10.7,4.2-16.2
		c-2.8-9.9-11.3-18.2-22.2-21.4c-10.9-3.2-23.7-1.2-33.3,5c-5,3.3-9.2,7.7-15,9.6c-4.1,1.4-8.5,1.4-12.8,1.7
		C213.4,268.2,208.8,269.1,205.6,271.8z"/>
</g>
<g>
	<path class="st0" d="M279.2,137.1c-6.7-14-21.1-9.3-33.1-7.3c-7,1.1-13.5,2.3-19.6,6.1c-10.9,6.8-17.3,22.5-9.9,33
		c7.8,11,24.6,9.7,37.3,5c7.8-2.9,15.6-6.9,21-13.3C280.3,154,282.8,144.7,279.2,137.1z"/>
</g>
<g>
	<path class="st1" d="M1196.4,490.7c-8.7-18.3-27.6-12.1-43.2-9.6c-9.1,1.5-17.6,3-25.6,8c-14.3,8.9-22.6,29.4-12.9,43.1
		c10.2,14.4,32.2,12.7,48.8,6.5c10.2-3.8,20.4-9,27.4-17.4C1197.9,512.9,1201.1,500.6,1196.4,490.7z"/>
</g>
<g>
	<path class="st1" d="M513.1,50.3c-8.7-18.3-27.6-12.1-43.2-9.6c-9.1,1.5-17.6,3-25.6,8c-14.3,8.9-22.6,29.4-12.9,43.1
		c10.2,14.4,32.2,12.7,48.8,6.5c10.2-3.8,20.4-9,27.4-17.4C514.6,72.5,517.8,60.2,513.1,50.3z"/>
</g>
<g>
	<path class="st0" d="M1248.6,335c-5.1,14.9-16.1,9.9-25.1,7.8c-5.3-1.2-10.3-2.5-15-6.5c-8.3-7.2-13.2-23.9-7.5-35
		c6-11.7,18.8-10.3,28.4-5.3c6,3.1,11.9,7.3,16,14.1C1249.5,317,1251.3,327,1248.6,335z"/>
</g>
<g>
	<path class="st1" d="M297,534c6.8-12.5,6.8-29.8-3.7-39.3c-7-6.2-17.1-7.9-26.3-6.5c-9.2,1.4-17.8,5.4-26.2,9.4
		c-9,4.3-19.3,8.6-25.2,17c-1.4,2-2.6,4.4-1.8,6.6c0.6,1.7,2.2,2.9,3.9,3.5c1.7,0.5,3.6,0.6,5.4,0.6c4.2,0.1,8.6,0.5,12.4,2
		c3.9,1.6,7.4,4.8,8.4,8.9c1.3,5.3-1.6,10.8-1.3,16.2c0.2,5.5,3.9,10.8,9.1,12.8c8.3,3.2,16.8-2.9,23.2-7.7
		C283.4,551.1,291.8,543.7,297,534z"/>
</g>
<g>
	<path class="st1" d="M-17.5,18.4C-26.9,28.7-31.7,40.6-33,53.8c-3.1,29.8,16,62.8,49,76.8c42.6,18.3,99.2,0.6,114.9-36.1
		c7.2-16.6,4.8-38.8-12.9-49.8c-12.1-7.6-27.9-8.1-42.1-5.9c-18.2,2.6-35.5,8.9-54.1,8.1C3.2,46.2-17.6,34.5-17.4,18.6"/>
</g>
<g>
	<path class="st1" d="M1126.3,199.9c3.2-5.9,4.4-12.2,4-18.9c-0.8-15.1-11.3-29.9-26.2-34.1c-19.3-5.5-42,8.1-46,27.7
		c-1.9,8.9,0.8,19.7,9,23.7c5.6,2.8,12.4,1.7,18.2-0.6c7.5-2.8,14.4-7.4,22.3-8.6c7.9-1.2,17.5,2.9,18.6,10.8"/>
</g>
<g>
	<path class="st0" d="M43.5,174.1c-2.7,0.8-4.9,2.3-6.7,4.4c-4.2,4.7-5.5,12.1-2.4,17.7c4.1,7.2,14.7,9.8,21.6,5.2
		c3.1-2.1,5.6-6.1,4.3-9.6c-0.9-2.4-3.1-4.1-5.5-5.1c-3-1.3-6.4-2-9.1-3.9S41.4,176.7,43.5,174.1"/>
</g>
<g>
	<path class="st0" d="M865.2,373.7c0.5-0.9,0.9-1.8,1.1-2.7c0.5-2.2,0-4.5-1.3-6.6c-1.5-2.2-3.8-3.7-6.5-5.4
		c-4.6-3-12.5-5.1-18.1-1.7c-4.1,2.5-3.7,6.5-3,9.9c0.9,4,1.7,8.1,2.6,12.1c0.9,4.4,1.9,8.9,4.5,13.1c2.6,4.2,7.2,8.1,13.8,10.3
		c6.6,2.2,15.5,2.3,21.5-0.4s7.8-8.5,2.7-11.8c-2.9-1.9-7.3-2.8-11.3-3.9c-5-1.3-8.7-3.2-9.7-6.4c-0.5-1.5,0.9-2.6,1.9-3.9
		C864.1,375.4,864.7,374.6,865.2,373.7z"/>
</g>
<g>
	<path class="st1" d="M12.9,371c-0.8-3-1.9-6-3.2-8.8c-3.3-6.9-8.5-12.8-14.7-17.1c-6.5-4.5-13.4-6.1-20.9-8.1
		c-13.2-3.5-30.5-0.6-33.4,15.2c-2.2,11.7,6.1,22.5,13.8,31.5c9,10.5,18.1,20.9,27.1,31.4c9.9,11.5,19.9,23.1,32.2,32
		s27.3,14.9,42.4,13.8s30.1-10.6,34.9-25s-3.1-32.6-17.7-36.5c-8.5-2.2-17.4,0.2-26.1,1.7c-10.8,1.8-20.4,0.7-28.3-7.4
		c-3.6-3.7-3.3-8.3-4-13.1C14.3,377.2,13.7,374.1,12.9,371z"/>
</g>
<g>
	<path class="st0" d="M243.5,693c-1.5-0.2-3.1-0.3-4.6-0.3c-3.8,0.1-7.5,1.3-10.7,3.2c-3.3,2-5.4,4.8-7.9,7.8
		c-4.2,5.3-6.4,13.6,0.1,18.1c4.8,3.3,11.4,1.8,17,0.1c6.5-1.9,13.1-4,19.6-5.9c7.2-2.2,14.4-4.3,20.9-8.1
		c6.5-3.8,12.2-9.3,14.8-16.4c2.5-7,1.3-15.7-4.3-20.8c-5.5-5.1-15.3-5.2-20,0.6c-2.7,3.4-3.4,7.9-4.5,12.1c-1.4,5.2-3.8,9.3-9,11.3
		c-2.4,0.9-4.4-0.2-6.7-0.8C246.6,693.7,245.1,693.3,243.5,693z"/>
</g>
<g>
	<path class="st1" d="M5.5,305.1c-11.3,3-26,0.9-33.1-7.4c-4.6-5.5-5-12.5-3-18.5s6.3-11.4,10.6-16.5c4.5-5.5,9.2-11.9,16.9-14.9
		c1.8-0.7,4-1.2,5.8-0.4c1.4,0.6,2.2,1.9,2.6,3.1c0.3,1.2,0.2,2.5,0,3.7c-0.3,2.9-0.4,5.8,0.5,8.6c1,2.8,3.4,5.6,6.7,6.8
		c4.4,1.5,9.3,0.3,14,1.1c4.7,0.8,8.8,4,10,7.7c1.9,6-4.1,11-8.8,14.7C21.4,298.1,14.2,302.8,5.5,305.1z"/>
</g>
<g>
	<path class="st1" d="M1431.1-14c-5.8,6.4-14.6,8.7-23.1,9.9c-8.5,1.1-17.2,1.4-25,4.9c-11,4.9-18.3,15.4-27.5,23.3
		c-17.6,15.2-42.7,20.6-65,14.1c-19.4-5.6-36.3-20.1-45.6-38.6h121v-50c0.1-0.1,0.3-0.2,0.4-0.2c12.6-7.8,26.4-15.5,41.1-13.7
		c10.5,1.3,18.7,9.5,23.4,18.8C1435.7-35.9,1438.9-22.8,1431.1-14z"/>
</g>
<g>
	<path class="st0" d="M482.8-0.1c-0.6,0.7-1.2,1.4-1.8,2.1c-6.4,7.5-13.7,14.4-17.8,23.3c-5.8,12.5-4.5,27-6.6,40.7
		c-4,26.2-21.4,50-45.2,61.7c-23.8,11.7-53.4,10.9-76.5-2c-13-7.2-24.8-20.2-23.5-35c1.3-16.2,17.2-27.1,32.5-32.6
		s32.2-8.3,44.5-18.9c11.5-9.9,16.9-24.8,21.5-39.3H482.8z"/>
</g>
<g>
	<path class="st1" d="M69.7,768.1H0v54.6c-4.6,0.3-9.1-0.3-13.2-2.3c-12-5.8-15.8-21.5-13.1-34.4c5.8-28.4,38.7-48.2,66.8-40.2
		C52.7,749.2,62.9,757.5,69.7,768.1z"/>
</g>
</svg>
