<?xml version="1.0" encoding="utf-8"?>
<!-- Generator: Adobe Illustrator 26.5.0, SVG Export Plug-In . SVG Version: 6.00 Build 0)  -->
<svg version="1.1" id="Calque_1" xmlns="http://www.w3.org/2000/svg" xmlns:xlink="http://www.w3.org/1999/xlink" x="0px" y="0px"
	 viewBox="0 0 768 768" style="enable-background:new 0 0 768 768;" xml:space="preserve">
<style type="text/css">
	.st0{fill:#EEBBC3;}
</style>
<g>
	<g>
		<path d="M495.5,423.2L493,416c-8.8,4.9-17.5,7.4-25.6,7.4c-2.5-0.4-4.4-0.5-5.8-0.5c-15-1.4-27-7.2-36.2-17.5
			c-6.9-7.8-11.1-16.9-12.7-27.9l24.5-16.8l-23.7-13.1c0.2-0.4,0.2-0.7,0.4-1.1l4.8-14.1c13.6,13.1,31.6,19.8,54.2,20
			c-7.8-25.8-13.2-48.7-16.4-69c-6.5-38.3-9.9-64.3-9.9-78c0-15.4,4.8-29.5,14.5-42.4l6.5-7.9l-21.7-22.4
			c-15.5,5.6-23.7,8.8-24.5,9.2c-14.1,4.4-30,6.5-47.7,6.5l-18.5,1.2l-15.2,1.2c-6.2,0.5-12,0.7-17.1,0.7h-23.7
			c-2.3,0-4.6-0.2-7.2-0.7c-16.8,0-30.9-0.9-42.4-2.6c-11.5-1.8-26.8-6.4-46.3-13.9L186.9,158l10.6,12.5
			c12.4,17.7,18.5,36.9,18.5,58.1c0,18-3.7,40.3-11.3,66.7l-6,17.3l-8.7-1.9c-3-0.5-7.6-1.1-13.2-1.6c-5.8-0.7-10.6-0.9-14.5-0.9
			c-19.8,0-36.2,3.7-49.3,10.9s-23.7,18.4-32,33.4c-4.1,6.2-6.5,13.2-7.9,21.2c-1.2,7.9-1.9,15-1.9,21.2c0,30.9,12,51.2,35.7,60.9
			l3.9-11.3c6.5-15,17.7-22.4,33-22.4c8.3,0,16.2,3.4,23.8,9.9c-2.3,13.2-5.8,27.2-10.6,41.7c-6.5,17.7-14.8,34.4-24.7,50.5
			c-9.9,16.1-23.8,34.4-42,55.3l-14.5,15.2l25.8,25.8c6.5-8.3,13.9-14.3,22.2-17.5c8.1-3.4,21.5-4.9,39.9-4.9c14.1,0,29,1.1,44.3,3
			c15.4,1.9,29.7,5.5,42.9,10.2l20.5,8.7l17.8-29.1l-7.2-3.4c-38.8-19.8-58.1-49.8-58.1-89.9l1.9-22.4l13.2,9.4
			c10.9,6.2,20.8,9.9,29.5,11.3c8.7,1.2,15.7,1.9,21.5,1.9c11.5,0,21.5-2.6,30.4-7.9c8.8-5.3,18.5-14.3,29.1-27.2l5.3-7.2l3.4,17.1
			l1.2,4.6l4.6,27.2l0.7,1.9v12.5c0,15.5-1.4,27.5-4.2,36c-2.8,8.7-8.7,18-17.5,28.1l-7.2,7.9l-3.4,4.1l27.2,25.8
			c14.5-6.5,28.4-11.7,41.7-15.2c6.7-1.8,13.8-3.2,21.2-4.1c-2.6-1.9-5.3-4.1-7.6-6.4c-8.1-7.4-14.5-15-19.1-23.1
			c-4.8-7.9-8.1-16.6-10.2-26c-2.1-9.2-3.2-17.8-3.2-26c0-33.2,18.4-58.3,55.1-75.4c11.8-5.6,26.3-9,43.4-10.4
			c2.1,0,4.8-0.2,8.1-0.5c3.4-0.4,6.4-0.5,9.2-0.5h0.5L495.5,423.2z M338.7,405.4c0,6.2-1.9,11.3-6,15.2c-3.9,4.1-8.3,6-13.2,6
			c-3,0-6-0.7-8.7-1.9c-6.5-2.6-11.8-6.5-15.9-12l-18.5-23.8l-1.9-3.4l-17.7-24.9c-1.8-2.6-4.2-6-7.2-9.9c-2.3-3.9-3.4-8.3-3.4-13.2
			c0-5.3,1.9-14.5,6-27.7l7.2-27.7l2.6-13.2l2.6-15.9l2.6-15.2l2.6-12.5l17.1-0.7l23.8,64.8l4.6,15.9l6.5,21.7l0.7,2.6l9.2,36.4
			c3,11.5,5.1,20,6,25.4C338.9,396.7,339.1,401.5,338.7,405.4z"/>
	</g>
	<g>
		<g>
			<path class="st0" d="M682.6,635.1c-10.8-5.8-22.6-9.9-35.1-12c-12.7-2.1-29.5-3.2-49.6-3.2l-16.2,1.1l-5.8,0.5l-29.3,3.7
				l-14.7,1.6h-10.4c-14.5,0-24.9-0.2-31.4-0.7c-6.2-0.5-13.4-1.9-21.4-3.9c-18.7-5.5-34.3-12.5-46.3-21.4c-2.5-1.8-4.9-3.9-7.6-6.4
				c-7.9-7.2-14.3-15-19.1-23s-8.1-16.8-10.2-25.8c-2.1-9.2-3.2-17.8-3.2-26c0-32.8,18.4-58.1,54.7-75c11.8-5.5,26.3-9,43.4-10.4
				l0,0c2.1,0,4.8-0.2,8.1-0.5c3.5-0.4,6.5-0.5,9.2-0.5h0.5c12.4,0,23.7,1.9,33.9,5.5c10.4,3.7,22.1,9.9,34.6,18.5l9.2,6.2
				l-0.5-31.3v-4.1l-1.1-21l-1.1-18.4c-1.1-13.6-7.6-20.3-19.2-20.3c-2.5,0-4.9,0.5-7.1,1.6c-6.4,2.8-12.2,6.9-17.3,12.2
				c-1.1,1.1-7.2,7.8-16.2,17.8l-7.2,6.7c-4.4,3.5-8.8,6.4-13.1,8.8c-8.8,4.9-17.3,7.4-25.4,7.4c-2.5-0.4-4.4-0.5-5.8-0.5
				c-14.8-1.4-26.8-7.2-35.8-17.3c-9-10.2-13.6-23.5-13.6-39.2v-5.8c0-3.7,0.5-7.4,1.4-11.1l0.7-2.5l4.4-13.4
				c13.4,12.9,31.6,19.4,54,19.6h0.7c7.6,0,16.4-0.5,26.3-1.6l14.7-2.1c12.5-2.1,22.4-3.5,30.2-4.4c8.1-0.9,13.9-1.2,18-1.2
				c38.8,0,66.4,10.1,82.3,30c15.7,20,23.8,53.1,23.8,98.5l-0.5,15.7c0,13.9-0.4,26.3-1.1,36.7c-0.7,10.2-0.9,16.6-0.5,19.4
				c0,21.5,2.3,37.6,6.9,47.5c4.4,9.9,12.2,18.2,22.8,24.9L682.6,635.1z M529.2,469.6c-6.9,0-12.7,2.1-17.5,6
				c-3.2,2.6-5.6,6-7.9,10.4c-3.5,6.4-6.2,12.7-7.9,18.7c-1.8,6-2.6,14.5-2.6,25.1c-0.4,2.8-0.5,5.5-0.5,8.3v6.4
				c0,5.6,0.2,9.5,0.5,11.7c1.8,14.7,5.8,26.3,12.2,34.6c6.4,8.3,14.3,12.5,23.8,12.5c12,0,21.4-6,27.9-17.8
				c2.3-4.1,4.2-9.2,5.6-15.5c2.6-11.3,4.1-26.1,4.1-44.1c0-11.1-1.2-20.5-3.4-27.7c-2.3-7.2-5.6-13.1-9.9-17.1
				C546.2,473.3,538,469.6,529.2,469.6z"/>
			<path class="st0" d="M419,333.7c13.4,12.5,31.6,19.1,53.8,19.2h0.7c7.6,0,16.4-0.5,26.3-1.6l14.7-2.1c12.5-2.1,22.4-3.5,30-4.4
				c8.1-0.9,13.9-1.2,18-1.2c38.7,0,66.2,10.1,81.9,29.8c15.7,19.8,23.7,53,23.7,98.2l-0.5,15.7c0,13.9-0.4,26.3-1.1,36.7
				c-0.7,10.2-0.9,16.6-0.5,19.6c0,21.7,2.3,37.8,6.9,47.7c4.4,9.9,12,18.2,22.6,24.7l-13.1,18.5c-10.8-5.8-22.4-9.7-35-11.8
				c-12.7-2.1-29.5-3.2-49.6-3.2l0,0l-16.2,1.1l-5.8,0.5l-29.3,3.7l-14.7,1.6h-10.4c-14.5,0-24.9-0.2-31.4-0.7
				c-6.2-0.5-13.4-1.9-21.4-3.9c-18.7-5.5-34.1-12.5-46.1-21.4c-2.5-1.8-4.9-3.9-7.6-6.2c-7.9-7.2-14.3-14.8-18.9-23
				c-4.8-7.9-8.1-16.6-10.1-25.6c-2.1-9.2-3.2-17.8-3.2-25.8c0-32.7,18.4-57.7,54.6-74.7c11.7-5.5,26.3-9,43.1-10.4
				c2.1,0,4.9-0.2,8.1-0.5c3.5-0.4,6.4-0.5,9-0.5h0.5c12.2,0,23.7,1.9,33.7,5.5c10.4,3.5,21.9,9.9,34.4,18.5l8.3,5.8l1.4,0.9v-1.8
				l-0.5-30.4v-4.2l-1.1-21l-1.1-18.4c-1.1-13.8-7.8-20.8-19.8-20.8c-2.6,0-4.9,0.5-7.2,1.6c-6.4,2.8-12.4,7.1-17.5,12.2
				c-1.2,1.2-7.1,7.6-16.2,17.8l-7.2,6.7c-4.4,3.5-8.7,6.4-13.1,8.8c-8.7,4.8-17.1,7.2-25.2,7.2c-2.5-0.4-4.4-0.5-5.8-0.5l0,0
				c-14.7-1.4-26.7-7.2-35.5-17.3c-8.8-10.1-13.4-23.3-13.4-39v-5.8c0-3.7,0.5-7.4,1.4-10.9c0.2-1.1,0.5-1.8,0.5-2.3L419,333.7
				 M492.7,529.7c-0.4,2.8-0.5,5.6-0.5,8.5v6.4c0,5.6,0.2,9.5,0.5,11.7c1.8,14.8,5.8,26.5,12.2,34.8c6.4,8.3,14.5,12.7,24.2,12.7
				c12.2,0,21.7-6,28.2-18c2.3-4.1,4.2-9.2,5.8-15.7c2.6-11.3,4.1-26.1,4.1-44.1c0-11.1-1.2-20.5-3.4-27.9
				c-2.3-7.2-5.6-13.1-9.9-17.3c-7.4-7.4-15.9-11.3-24.7-11.3c-6.9,0-12.9,2.1-17.8,6.2c-3.2,2.6-5.8,6.2-8.1,10.6
				c-3.5,6.4-6.2,12.7-7.9,18.9C493.6,510.8,492.7,519.1,492.7,529.7 M418.5,332.1l-4.8,14.1c-0.2,0.5-0.4,1.4-0.7,2.5
				c-0.9,3.7-1.4,7.4-1.4,11.3v5.8c0,16.1,4.6,29.3,13.6,39.5c9,10.2,21.2,16.1,36.2,17.5c1.4,0,3.4,0.2,5.8,0.5
				c8.1,0,16.8-2.5,25.6-7.4c4.2-2.5,8.7-5.3,13.1-8.8l7.4-6.9c9.7-10.8,15.2-16.8,16.2-17.8c5.3-5.3,10.9-9.2,17.3-12
				c2.1-1.1,4.4-1.6,6.9-1.6c11.5,0,17.8,6.7,18.9,20l1.1,18.4l1.1,21v4.2l0.5,30.4l-8.3-5.8c-12.5-8.8-24.2-15-34.6-18.7
				c-10.2-3.7-21.5-5.5-34.1-5.5h-0.5c-2.8,0-5.8,0.2-9.2,0.5c-3.4,0.4-6,0.5-8.1,0.5c-17.1,1.4-31.6,4.9-43.4,10.4
				c-36.7,17.1-55.1,42.4-55.1,75.4c0,8.1,1.1,16.8,3.2,26c2.1,9.2,5.5,17.8,10.2,26s11.1,15.7,19.1,23.1c2.5,2.1,4.9,4.2,7.6,6.4
				c12,8.8,27.5,16.1,46.3,21.5c7.9,2.1,15.2,3.4,21.5,3.9c6.4,0.5,16.8,0.7,31.4,0.7h10.4l14.7-1.6l29.3-3.7l5.8-0.5l16.2-1.1
				c20.3,0,36.7,1.1,49.6,3.2c12.7,2.1,24.5,6.2,35.3,12l14.1-20c-10.8-6.5-18.5-14.8-23-24.9c-4.6-9.9-6.9-25.8-6.9-47.5
				c-0.4-2.8-0.2-9.2,0.5-19.4c0.7-10.2,1.1-22.4,1.1-36.7l0.5-15.7c0-45.7-7.9-78.7-23.8-98.9s-43.4-30.2-82.5-30.2
				c-4.2,0-10.2,0.5-18,1.2c-7.8,0.9-17.8,2.3-30.2,4.4l-14.7,2.1c-10.2,1.1-18.9,1.6-26.3,1.6h-0.7
				C450.1,351.9,432.1,345.3,418.5,332.1L418.5,332.1z M529.2,602.6c-9.4,0-17.3-4.1-23.5-12.4c-6.4-8.1-10.4-19.6-12-34.4
				c-0.4-2.1-0.5-6-0.5-11.5V538c0-2.8,0.2-5.6,0.5-8.3c0-10.4,0.9-18.7,2.6-24.9c1.8-6.2,4.4-12.4,7.8-18.7
				c2.3-4.2,4.8-7.8,7.9-10.2c4.8-3.9,10.4-6,17.3-6c8.8,0,16.8,3.7,24.2,10.9c4.2,4.2,7.4,9.9,9.7,16.9c2.3,7.2,3.4,16.4,3.4,27.5
				c0,18-1.4,32.8-4.1,44c-1.4,6.2-3.4,11.3-5.6,15.5C550.2,596.7,541,602.6,529.2,602.6L529.2,602.6z"/>
		</g>
	</g>
</g>
</svg>
