<?xml version="1.0" encoding="utf-8"?>
<!-- Generator: Adobe Illustrator 26.5.0, SVG Export Plug-In . SVG Version: 6.00 Build 0)  -->
<svg version="1.1" id="Calque_1" xmlns="http://www.w3.org/2000/svg" xmlns:xlink="http://www.w3.org/1999/xlink" x="0px" y="0px"
	 viewBox="0 0 1024 768" style="enable-background:new 0 0 1024 768;" xml:space="preserve">
<style type="text/css">
	.st0{stroke:#000000;stroke-width:24;stroke-miterlimit:10;}
</style>
<path d="M337.3,320.2L337.3,320.2L337.3,320.2L337.3,320.2z"/>
<path class="st0" d="M92.2,382.8c-0.2,0.8-0.2,1.7,0,2.5c0,0.3,0.1,0.6,0.2,0.9c0.1,0.4,0.1,0.7,0.4,0.9c0.1,0.2,0.1,0.4,0.3,0.6
	c0,0.1,0.1,0.1,0.1,0.1s0,0,0.1,0.1v0.1c0,0.1,0,0.1,0.1,0.2s0.1,0.1,0.2,0.3c0.1,0.1,0.2,0.3,0.4,0.4c0.2,0.2,0.4,0.4,0.7,0.7
	l0.1,0.1l0.7,0.5l301.6,257.9c1.3,1.2,3,1.7,4.7,1.7c2.1,0,4.1-0.9,5.6-2.5c2.5-3.1,2.2-7.7-0.9-10.3L119,391.3h805.7
	c4,0,7.3-3.3,7.3-7.3c0-4.1-3.3-7.3-7.3-7.3H119l287.2-245.6c3.1-2.6,3.4-7.2,0.9-10.3c-2.6-3.1-7.2-3.4-10.3-0.8L95.2,378
	c-0.2,0.1-0.5,0.4-0.7,0.6s-0.4,0.4-0.7,0.7l-0.1,0.1c-0.1,0.1-0.2,0.2-0.3,0.4c-0.1,0.2-0.3,0.4-0.4,0.7c-0.1,0-0.1,0.1-0.1,0.1
	c-0.1,0.2-0.3,0.4-0.4,0.7c-0.1,0.2-0.2,0.4-0.2,0.7C92.2,382.2,92.2,382.5,92.2,382.8z"/>
</svg>
