<?xml version="1.0" encoding="utf-8"?>
<!-- Generator: Adobe Illustrator 26.5.0, SVG Export Plug-In . SVG Version: 6.00 Build 0)  -->
<svg version="1.1" id="Calque_1" xmlns="http://www.w3.org/2000/svg" xmlns:xlink="http://www.w3.org/1999/xlink" x="0px" y="0px"
	 viewBox="0 0 1024 768" style="enable-background:new 0 0 1024 768;" xml:space="preserve">
<path d="M337.3,320.2L337.3,320.2L337.3,320.2L337.3,320.2z"/>
<path d="M511,725.6c0.7,0.2,1.4,0.2,2,0c0.2,0,0.5-0.1,0.7-0.2c0.3-0.1,0.6-0.1,0.7-0.3c0.2-0.1,0.3-0.1,0.5-0.2
	c0.1,0,0.1-0.1,0.1-0.1s0,0,0.1-0.1h0.1c0.1,0,0.1,0,0.2-0.1s0.1-0.1,0.2-0.2c0.1-0.1,0.2-0.2,0.3-0.3c0.2-0.2,0.3-0.3,0.6-0.6
	l0.1-0.1l0.4-0.6l209.8-245.4c1-1.1,1.4-2.4,1.4-3.8c0-1.7-0.7-3.3-2-4.6c-2.5-2-6.3-1.8-8.4,0.7L517.9,703.8V48.2
	c0-3.3-2.7-5.9-5.9-5.9c-3.3,0-5.9,2.7-5.9,5.9v655.6L306.2,470.1c-2.1-2.5-5.9-2.8-8.4-0.7c-2.5,2.1-2.8,5.9-0.7,8.4l209.9,245.4
	c0.1,0.2,0.3,0.4,0.5,0.6c0.2,0.2,0.3,0.3,0.6,0.6l0.1,0.1c0.1,0.1,0.2,0.2,0.3,0.2c0.2,0.1,0.3,0.2,0.6,0.3c0,0.1,0.1,0.1,0.1,0.1
	c0.2,0.1,0.3,0.2,0.6,0.3c0.2,0.1,0.3,0.2,0.6,0.2C510.5,725.6,510.8,725.6,511,725.6z"/>
</svg>
