<?xml version="1.0" encoding="utf-8"?>
<!-- Generator: Adobe Illustrator 26.5.0, SVG Export Plug-In . SVG Version: 6.00 Build 0)  -->
<svg version="1.1" id="Calque_1" xmlns="http://www.w3.org/2000/svg" xmlns:xlink="http://www.w3.org/1999/xlink" x="0px" y="0px"
	 viewBox="0 0 1024 768" style="enable-background:new 0 0 1024 768;" xml:space="preserve">
<style type="text/css">
	.st0{stroke:#000000;stroke-width:24;stroke-miterlimit:10;}
</style>
<path d="M337.3,320.2L337.3,320.2L337.3,320.2L337.3,320.2z"/>
<path class="st0" d="M512.9,42.5c-0.7-0.2-1.4-0.2-2,0c-0.2,0-0.5,0.1-0.7,0.2c-0.3,0.1-0.6,0.1-0.7,0.3c-0.2,0.1-0.3,0.1-0.5,0.2
	c-0.1,0-0.1,0.1-0.1,0.1s0,0-0.1,0.1h-0.1c-0.1,0-0.1,0-0.2,0.1s-0.1,0.1-0.2,0.2c-0.1,0.1-0.2,0.2-0.3,0.3
	c-0.2,0.2-0.3,0.3-0.6,0.6l-0.1,0.1l-0.4,0.6L297.1,290.6c-1,1.1-1.4,2.4-1.4,3.8c0,1.7,0.7,3.3,2,4.6c2.5,2,6.3,1.8,8.4-0.7
	L506,64.2v655.6c0,3.3,2.7,5.9,5.9,5.9c3.3,0,5.9-2.7,5.9-5.9V64.2l199.9,233.7c2.1,2.5,5.9,2.8,8.4,0.7c2.5-2.1,2.8-5.9,0.7-8.4
	L516.9,44.9c-0.1-0.2-0.3-0.4-0.5-0.6c-0.2-0.2-0.3-0.3-0.6-0.6l-0.1-0.1c-0.1-0.1-0.2-0.2-0.3-0.2c-0.2-0.1-0.3-0.2-0.6-0.3
	c0-0.1-0.1-0.1-0.1-0.1c-0.2-0.1-0.3-0.2-0.6-0.3c-0.2-0.1-0.3-0.2-0.6-0.2C513.4,42.5,513.1,42.5,512.9,42.5z"/>
</svg>
